# xmcd
#
# Track frame offsets: 
#        150
#        13191
#        27183
#        41418
#        60484
#        78697
#        91885
#        112899
#        128071
#
# Disc length: 1959 seconds
#
# Revision: 0
# Processed by: cddbd v1.5.2PL0 Copyright (c) Steve Scherf et al.
# Submitted via: ExactAudioCopy v1.0b3
#
DISCID=6607a509
DTITLE=Магелланово Облако - Акустика
DYEAR=2013
DGENRE=Blues
TTITLE0=И будет свет
TTITLE1=Звезда
TTITLE2=Растворись и растай
TTITLE3=О чем печалится Луна
TTITLE4=С Севера на Восток
TTITLE5=Долгое небо
TTITLE6=Оберег
TTITLE7=Молчала словно пела
TTITLE8=Тайна
EXTD=
EXTT0=
EXTT1=
EXTT2=
EXTT3=
EXTT4=
EXTT5=
EXTT6=
EXTT7=
EXTT8=
PLAYORDER=
